<svg width="123" height="41" viewBox="0 0 123 41" fill="none" xmlns="http://www.w3.org/2000/svg">
<rect y="5" width="123" height="36" rx="5" fill="#F6855B"/>
<rect width="122.727" height="36.3636" rx="5" fill="#EDC748"/>
<rect x="2.5" y="2.5" width="118" height="32" rx="3.5" stroke="white"/>
<path d="M36.58 18.98H46.48V20.92H36.58V18.98ZM41.7 17.44H43.86V25.18C43.86 25.66 43.8067 26.0467 43.7 26.34C43.5933 26.6333 43.3733 26.86 43.04 27.02C42.7067 27.18 42.32 27.28 41.88 27.32C41.4533 27.36 40.9467 27.38 40.36 27.38C40.3067 27.0867 40.2067 26.7467 40.06 26.36C39.9267 25.9867 39.7867 25.6667 39.64 25.4C40.0133 25.4133 40.3667 25.42 40.7 25.42C41.0333 25.42 41.26 25.42 41.38 25.42C41.5933 25.42 41.7 25.3267 41.7 25.14V17.44ZM41.22 20.14L42.94 20.82C42.5133 21.5133 42 22.2 41.4 22.88C40.8 23.5467 40.1533 24.16 39.46 24.72C38.7667 25.2667 38.0733 25.7267 37.38 26.1C37.2067 25.8467 36.9733 25.5533 36.68 25.22C36.3867 24.8733 36.1267 24.6 35.9 24.4C36.5667 24.1067 37.2333 23.74 37.9 23.3C38.58 22.8467 39.2067 22.3533 39.78 21.82C40.3667 21.2733 40.8467 20.7133 41.22 20.14ZM34.28 12.56H39.28V14.18H34.28V12.56ZM43.56 12.56H48.6V14.18H43.56V12.56ZM47.62 9.78H50.04V24.92C50.04 25.5867 49.96 26.1067 49.8 26.48C49.6533 26.8533 49.3667 27.14 48.94 27.34C48.5267 27.54 47.9933 27.6667 47.34 27.72C46.7 27.7733 45.92 27.8 45 27.8C44.9733 27.56 44.9133 27.2933 44.82 27C44.74 26.7067 44.64 26.4067 44.52 26.1C44.4133 25.8067 44.3 25.5533 44.18 25.34C44.5667 25.3667 44.96 25.3867 45.36 25.4C45.76 25.4 46.12 25.4 46.44 25.4C46.76 25.3867 46.9867 25.38 47.12 25.38C47.3067 25.38 47.4333 25.3467 47.5 25.28C47.58 25.2 47.62 25.0667 47.62 24.88V9.78ZM34.46 9.78H40.8V17.04H34.46V15.32H38.54V11.52H34.46V9.78ZM48.9 9.78V11.52H44.42V15.36H48.9V17.08H42.14V9.78H48.9ZM33.08 9.78H35.46V27.8H33.08V9.78ZM63.78 11.86C63.9667 12.14 64.1733 12.4733 64.4 12.86C64.64 13.2333 64.8733 13.62 65.1 14.02C65.3267 14.4067 65.5133 14.76 65.66 15.08L63.88 15.86C63.68 15.4333 63.48 15.04 63.28 14.68C63.0933 14.3067 62.9 13.9533 62.7 13.62C62.5133 13.2733 62.2933 12.9333 62.04 12.6L63.78 11.86ZM66.46 10.76C66.66 11.0267 66.88 11.3533 67.12 11.74C67.36 12.1133 67.5933 12.4933 67.82 12.88C68.06 13.2533 68.2533 13.5933 68.4 13.9L66.66 14.74C66.46 14.3133 66.2533 13.9267 66.04 13.58C65.84 13.22 65.6333 12.8733 65.42 12.54C65.22 12.2067 64.9933 11.88 64.74 11.56L66.46 10.76ZM58.62 10.26C58.5533 10.6867 58.5 11.14 58.46 11.62C58.42 12.0867 58.3867 12.52 58.36 12.92C58.3333 13.4533 58.3067 14.1133 58.28 14.9C58.2533 15.6733 58.2267 16.4933 58.2 17.36C58.1733 18.2133 58.1467 19.0533 58.12 19.88C58.1067 20.6933 58.1 21.4133 58.1 22.04C58.1 22.7067 58.22 23.24 58.46 23.64C58.7133 24.0267 59.0467 24.3067 59.46 24.48C59.8867 24.64 60.36 24.72 60.88 24.72C61.6933 24.72 62.44 24.6133 63.12 24.4C63.8133 24.1733 64.4333 23.8733 64.98 23.5C65.54 23.1133 66.0467 22.6733 66.5 22.18C66.9533 21.6867 67.36 21.1667 67.72 20.62L69.54 22.84C69.2067 23.32 68.78 23.8267 68.26 24.36C67.74 24.8933 67.12 25.3933 66.4 25.86C65.6933 26.3267 64.8733 26.7 63.94 26.98C63.0067 27.2733 61.9733 27.42 60.84 27.42C59.76 27.42 58.8133 27.2533 58 26.92C57.1867 26.5867 56.56 26.0667 56.12 25.36C55.68 24.64 55.46 23.7133 55.46 22.58C55.46 22.0333 55.4667 21.4133 55.48 20.72C55.4933 20.0133 55.5067 19.28 55.52 18.52C55.5467 17.76 55.5667 17.02 55.58 16.3C55.5933 15.5667 55.6067 14.9067 55.62 14.32C55.6333 13.72 55.64 13.2533 55.64 12.92C55.64 12.44 55.62 11.9733 55.58 11.52C55.54 11.0533 55.48 10.62 55.4 10.22L58.62 10.26ZM75.9 10.76C76.18 10.8 76.48 10.8267 76.8 10.84C77.12 10.8533 77.4267 10.86 77.72 10.86C77.9333 10.86 78.2533 10.86 78.68 10.86C79.1067 10.8467 79.5867 10.8333 80.12 10.82C80.6667 10.8067 81.2067 10.7933 81.74 10.78C82.2733 10.7667 82.7533 10.7533 83.18 10.74C83.62 10.7133 83.96 10.6933 84.2 10.68C84.6133 10.64 84.94 10.6067 85.18 10.58C85.42 10.54 85.6 10.5 85.72 10.46L87.02 12.24C86.7933 12.3867 86.56 12.5333 86.32 12.68C86.08 12.8267 85.8467 12.9867 85.62 13.16C85.3533 13.3467 85.0333 13.5933 84.66 13.9C84.2867 14.1933 83.8867 14.5067 83.46 14.84C83.0467 15.1733 82.64 15.5 82.24 15.82C81.8533 16.14 81.5 16.4267 81.18 16.68C81.5133 16.6 81.8333 16.5467 82.14 16.52C82.4467 16.48 82.76 16.46 83.08 16.46C84.2133 16.46 85.2267 16.68 86.12 17.12C87.0267 17.56 87.74 18.16 88.26 18.92C88.7933 19.6667 89.06 20.5267 89.06 21.5C89.06 22.5533 88.7933 23.5067 88.26 24.36C87.7267 25.2133 86.92 25.8933 85.84 26.4C84.7733 26.9067 83.4333 27.16 81.82 27.16C80.9 27.16 80.0667 27.0267 79.32 26.76C78.5867 26.4933 78.0067 26.1133 77.58 25.62C77.1533 25.1267 76.94 24.5467 76.94 23.88C76.94 23.3333 77.0867 22.8267 77.38 22.36C77.6867 21.88 78.1067 21.4933 78.64 21.2C79.1867 20.9067 79.8133 20.76 80.52 20.76C81.44 20.76 82.2133 20.9467 82.84 21.32C83.48 21.68 83.9667 22.1667 84.3 22.78C84.6467 23.3933 84.8267 24.0667 84.84 24.8L82.5 25.12C82.4867 24.3867 82.3 23.8 81.94 23.36C81.5933 22.9067 81.1267 22.68 80.54 22.68C80.1667 22.68 79.8667 22.78 79.64 22.98C79.4133 23.1667 79.3 23.3867 79.3 23.64C79.3 24.0133 79.4867 24.3133 79.86 24.54C80.2333 24.7667 80.72 24.88 81.32 24.88C82.4533 24.88 83.4 24.7467 84.16 24.48C84.92 24.2 85.4867 23.8067 85.86 23.3C86.2467 22.78 86.44 22.1667 86.44 21.46C86.44 20.86 86.2533 20.3333 85.88 19.88C85.52 19.4267 85.0267 19.0733 84.4 18.82C83.7733 18.5667 83.0667 18.44 82.28 18.44C81.5067 18.44 80.8 18.54 80.16 18.74C79.52 18.9267 78.9133 19.2 78.34 19.56C77.78 19.9067 77.2267 20.3333 76.68 20.84C76.1467 21.3333 75.6133 21.8867 75.08 22.5L73.26 20.62C73.62 20.3267 74.0267 20 74.48 19.64C74.9333 19.2667 75.3933 18.88 75.86 18.48C76.34 18.08 76.7867 17.7067 77.2 17.36C77.6267 17 77.9867 16.7 78.28 16.46C78.56 16.2333 78.8867 15.9667 79.26 15.66C79.6333 15.3533 80.02 15.04 80.42 14.72C80.82 14.3867 81.2 14.0733 81.56 13.78C81.92 13.4733 82.22 13.2133 82.46 13C82.26 13 82 13.0067 81.68 13.02C81.36 13.0333 81.0067 13.0467 80.62 13.06C80.2467 13.0733 79.8667 13.0867 79.48 13.1C79.1067 13.1133 78.7533 13.1333 78.42 13.16C78.1 13.1733 77.8333 13.1867 77.62 13.2C77.3533 13.2133 77.0733 13.2333 76.78 13.26C76.4867 13.2867 76.22 13.32 75.98 13.36L75.9 10.76Z" fill="white"/>
</svg>
