<svg width="123" height="41" viewBox="0 0 123 41" fill="none" xmlns="http://www.w3.org/2000/svg">
<rect width="123" height="41" rx="20" fill="#F6855B"/>
<rect width="122.727" height="36.3636" rx="18.1818" fill="#EDC748"/>
<path d="M50.6782 12.5073H60.9382V14.6873H50.6782V12.5073ZM51.0782 16.5873H60.4982V18.7273H51.0782V16.5873ZM50.0182 20.7473H61.2782V22.9473H50.0182V20.7473ZM54.4982 13.2873H56.8782V27.5273H54.4982V13.2873ZM58.0782 8.68729L60.4182 9.36729C60.0982 10.0073 59.7782 10.6406 59.4582 11.2673C59.1382 11.8806 58.8382 12.4073 58.5582 12.8473L56.6982 12.2073C56.8715 11.8873 57.0382 11.5273 57.1982 11.1273C57.3715 10.714 57.5382 10.294 57.6982 9.86729C57.8582 9.44063 57.9848 9.04729 58.0782 8.68729ZM51.2782 9.52729L53.2182 8.82729C53.5382 9.34729 53.8315 9.91396 54.0982 10.5273C54.3648 11.1406 54.5515 11.6806 54.6582 12.1473L52.5982 12.9473C52.5048 12.4806 52.3315 11.9273 52.0782 11.2873C51.8382 10.6473 51.5715 10.0606 51.2782 9.52729ZM43.3782 14.8673H49.5782V16.6873H43.3782V14.8673ZM43.4582 9.36729H49.5382V11.1673H43.4582V9.36729ZM43.3782 17.6073H49.5782V19.4073H43.3782V17.6073ZM42.4182 12.0473H50.2782V13.9473H42.4182V12.0473ZM44.4782 20.3673H49.5382V26.4673H44.4782V24.5673H47.4782V22.2673H44.4782V20.3673ZM43.3182 20.3673H45.3582V27.2473H43.3182V20.3673ZM74.5382 11.1873H76.6382V25.3273H74.5382V11.1873ZM70.7582 10.2473H80.6182V27.0473H78.3782V12.4673H72.8982V27.2273H70.7582V10.2473ZM71.9582 17.0873H79.2582V19.2673H71.9582V17.0873ZM71.9582 23.9673H79.2382V26.1473H71.9582V23.9673ZM65.5182 18.5673H67.6382V27.5073H65.5182V18.5673ZM65.4382 8.70729L67.5582 9.50729C67.2915 10.0273 67.0048 10.5606 66.6982 11.1073C66.4048 11.6406 66.1182 12.154 65.8382 12.6473C65.5582 13.1406 65.2848 13.5806 65.0182 13.9673L63.3982 13.2673C63.6382 12.8673 63.8848 12.4006 64.1382 11.8673C64.3915 11.334 64.6315 10.794 64.8582 10.2473C65.0982 9.70063 65.2915 9.18729 65.4382 8.70729ZM67.8582 11.1273L69.8382 12.0673C69.3448 12.8273 68.8115 13.6206 68.2382 14.4473C67.6648 15.2606 67.0848 16.0473 66.4982 16.8073C65.9248 17.5673 65.3782 18.234 64.8582 18.8073L63.4582 17.9873C63.8315 17.5473 64.2182 17.0473 64.6182 16.4873C65.0315 15.914 65.4315 15.3206 65.8182 14.7073C66.2182 14.0806 66.5915 13.4673 66.9382 12.8673C67.2982 12.254 67.6048 11.674 67.8582 11.1273ZM62.3382 13.4273L63.4782 11.7873C63.8248 12.0806 64.1782 12.4073 64.5382 12.7673C64.9115 13.1273 65.2515 13.4873 65.5582 13.8473C65.8782 14.194 66.1182 14.5206 66.2782 14.8273L65.0782 16.6873C64.9182 16.3806 64.6848 16.034 64.3782 15.6473C64.0848 15.2606 63.7582 14.874 63.3982 14.4873C63.0382 14.1006 62.6848 13.7473 62.3382 13.4273ZM67.3982 15.9073L69.1382 15.1473C69.4182 15.5873 69.6848 16.0606 69.9382 16.5673C70.1915 17.074 70.4182 17.574 70.6182 18.0673C70.8182 18.5473 70.9648 18.9806 71.0582 19.3673L69.1982 20.2473C69.1048 19.8606 68.9648 19.4206 68.7782 18.9273C68.6048 18.4206 68.3982 17.9073 68.1582 17.3873C67.9315 16.854 67.6782 16.3606 67.3982 15.9073ZM62.2982 17.4873C63.2182 17.434 64.3248 17.3606 65.6182 17.2673C66.9248 17.174 68.2448 17.0806 69.5782 16.9873L69.6182 18.8473C68.3915 18.9806 67.1648 19.114 65.9382 19.2473C64.7248 19.3806 63.6248 19.5006 62.6382 19.6073L62.2982 17.4873ZM67.6982 20.9873L69.4782 20.3873C69.7582 21.0006 70.0182 21.6673 70.2582 22.3873C70.4982 23.094 70.6782 23.714 70.7982 24.2473L68.8982 24.9073C68.8448 24.5473 68.7515 24.1473 68.6182 23.7073C68.4848 23.254 68.3382 22.794 68.1782 22.3273C68.0182 21.8473 67.8582 21.4006 67.6982 20.9873ZM63.1982 20.4673L65.1982 20.8073C65.0915 21.7673 64.9315 22.714 64.7182 23.6473C64.5182 24.5806 64.2715 25.3673 63.9782 26.0073C63.8448 25.914 63.6648 25.814 63.4382 25.7073C63.2248 25.6006 62.9982 25.494 62.7582 25.3873C62.5315 25.2673 62.3315 25.1806 62.1582 25.1273C62.4515 24.5406 62.6782 23.8273 62.8382 22.9873C63.0115 22.1473 63.1315 21.3073 63.1982 20.4673Z" fill="white"/>
</svg>
